<?xml version="1.0" encoding="utf-8"?>
<!-- Generator: Adobe Illustrator 22.1.0, SVG Export Plug-In . SVG Version: 6.00 Build 0)  -->
<svg version="1.1" id="Layer_1" xmlns="http://www.w3.org/2000/svg" xmlns:xlink="http://www.w3.org/1999/xlink" x="0px" y="0px"
	 viewBox="0 0 278 280" style="enable-background:new 0 0 278 280;" xml:space="preserve">
<style type="text/css">
	.st0{fill:#FCEA10;}
	.st1{fill:#E30613;}
	.st2{fill:#009640;}
	.st3{fill:#E6007E;}
	.st4{fill:#312783;}
	.st5{fill:#BE1622;}
	.st6{fill:#009FE3;}
	.st7{fill:#EA5B0C;}
</style>
<g>
	<path class="st0" d="M44.78,47.085C20.759,71.106,5.902,104.29,5.902,140.945H138.64L44.78,47.085z"/>
	<path class="st1" d="M138.64,8.207c-36.655,0-69.839,14.857-93.86,38.878l93.86,93.86V8.207z"/>
	<path class="st2" d="M232.5,47.085c-24.021-24.021-57.205-38.878-93.86-38.878v132.738L232.5,47.085z"/>
	<path class="st3" d="M271.378,140.945c0-36.655-14.857-69.839-38.878-93.86l-93.86,93.86H271.378z"/>
	<path class="st4" d="M44.78,234.805c24.021,24.021,57.205,38.878,93.86,38.878V140.945L44.78,234.805z"/>
	<path class="st5" d="M138.64,140.945l93.86,93.86c24.021-24.021,38.878-57.205,38.878-93.86H138.64z"/>
	<path class="st6" d="M5.902,140.945c0,36.655,14.857,69.839,38.878,93.86l93.86-93.86H5.902z"/>
	<path class="st7" d="M138.64,273.683c36.655,0,69.839-14.857,93.86-38.878l-93.86-93.86V273.683z"/>
</g>
</svg>
